<svg width="181" height="231" viewBox="0 0 181 231" fill="none" xmlns="http://www.w3.org/2000/svg">
<path fill-rule="evenodd" clip-rule="evenodd" d="M0.132568 0.441925L30.8752 4.39455V28.5296C30.8752 37.0189 23.9932 43.9009 15.5039 43.9009C7.01457 43.9009 0.132606 37.0189 0.132597 28.5296L0.132568 0.441925ZM0.132568 87.003L30.8752 100.055V215.14C30.8752 223.63 23.9932 230.512 15.5039 230.512C7.01457 230.512 0.132611 223.63 0.132608 215.14L0.132568 87.003ZM63.7524 0.441925L94.495 21.367V230.512C77.5163 230.512 63.7524 216.748 63.7524 199.769L63.7524 0.441925ZM180.41 196.11L172.596 230.512H94.4953V196.11L180.41 196.11Z" fill="url(#paint0_linear)"/>
<defs>
<linearGradient id="paint0_linear" x1="90.2714" y1="0.441925" x2="90.2714" y2="230.512" gradientUnits="userSpaceOnUse">
<stop stop-color="#FC00FF"/>
<stop offset="1" stop-color="#00DBDE"/>
</linearGradient>
</defs>
</svg>
